<mxfile host="app.diagrams.net" modified="2024-03-30T02:54:17.072Z" agent="Mozilla/5.0 (Windows NT 10.0; Win64; x64) AppleWebKit/537.36 (KHTML, like Gecko) Chrome/121.0.0.0 Safari/537.36 OPR/107.0.0.0" etag="4gHI7R8whx52nhGlkSMI" version="24.2.1" type="device">
  <diagram name="Страница — 1" id="Gai0HbWfZOeHXdjQ-eDa">
    <mxGraphModel dx="1393" dy="804" grid="1" gridSize="10" guides="1" tooltips="1" connect="1" arrows="1" fold="1" page="1" pageScale="1" pageWidth="827" pageHeight="1169" math="0" shadow="0">
      <root>
        <mxCell id="0" />
        <mxCell id="1" parent="0" />
        <mxCell id="PEE_GQFe0u9CEnzpE8_P-1" value="" style="rounded=1;whiteSpace=wrap;html=1;container=1;arcSize=4;recursiveResize=0;" parent="1" vertex="1">
          <mxGeometry x="200" y="80" width="460" height="280" as="geometry" />
        </mxCell>
        <mxCell id="PEE_GQFe0u9CEnzpE8_P-3" value="Отправить текстовые данные на проверку" style="ellipse;whiteSpace=wrap;html=1;" parent="PEE_GQFe0u9CEnzpE8_P-1" vertex="1">
          <mxGeometry x="60" y="90" width="140" height="70" as="geometry" />
        </mxCell>
        <mxCell id="PEE_GQFe0u9CEnzpE8_P-5" value="Запросить маску для проверки данных" style="ellipse;whiteSpace=wrap;html=1;" parent="PEE_GQFe0u9CEnzpE8_P-1" vertex="1">
          <mxGeometry x="260" y="20" width="140" height="70" as="geometry" />
        </mxCell>
        <mxCell id="PEE_GQFe0u9CEnzpE8_P-6" value="&amp;lt;&amp;lt;include&amp;gt;&amp;gt;" style="endArrow=open;endSize=12;dashed=1;html=1;rounded=0;" parent="PEE_GQFe0u9CEnzpE8_P-1" source="PEE_GQFe0u9CEnzpE8_P-3" target="PEE_GQFe0u9CEnzpE8_P-5" edge="1">
          <mxGeometry width="160" relative="1" as="geometry">
            <mxPoint x="130" y="210" as="sourcePoint" />
            <mxPoint x="290" y="210" as="targetPoint" />
          </mxGeometry>
        </mxCell>
        <mxCell id="PEE_GQFe0u9CEnzpE8_P-7" value="Отправить другому модулю на сохранение" style="ellipse;whiteSpace=wrap;html=1;" parent="PEE_GQFe0u9CEnzpE8_P-1" vertex="1">
          <mxGeometry x="260" y="190" width="140" height="70" as="geometry" />
        </mxCell>
        <mxCell id="PEE_GQFe0u9CEnzpE8_P-8" value="&amp;lt;&amp;lt;include&amp;gt;&amp;gt;" style="endArrow=open;endSize=12;dashed=1;html=1;rounded=0;" parent="PEE_GQFe0u9CEnzpE8_P-1" source="PEE_GQFe0u9CEnzpE8_P-3" target="PEE_GQFe0u9CEnzpE8_P-7" edge="1">
          <mxGeometry width="160" relative="1" as="geometry">
            <mxPoint x="198" y="115" as="sourcePoint" />
            <mxPoint x="283" y="85" as="targetPoint" />
          </mxGeometry>
        </mxCell>
        <mxCell id="PEE_GQFe0u9CEnzpE8_P-9" value="Модуль проверки текстовых данных" style="text;align=left;fontStyle=0;verticalAlign=middle;spacingLeft=3;spacingRight=3;strokeColor=none;rotatable=0;points=[[0,0.5],[1,0.5]];portConstraint=eastwest;html=1;" parent="PEE_GQFe0u9CEnzpE8_P-1" vertex="1">
          <mxGeometry x="20" width="80" height="26" as="geometry" />
        </mxCell>
        <mxCell id="PEE_GQFe0u9CEnzpE8_P-4" style="rounded=0;orthogonalLoop=1;jettySize=auto;html=1;exitX=1;exitY=0.3333333333333333;exitDx=0;exitDy=0;exitPerimeter=0;" parent="1" source="88GXb2ILRdPcKErkZSF7-1" target="PEE_GQFe0u9CEnzpE8_P-3" edge="1">
          <mxGeometry relative="1" as="geometry" />
        </mxCell>
        <mxCell id="88GXb2ILRdPcKErkZSF7-1" value="Пользователь" style="shape=umlActor;verticalLabelPosition=bottom;verticalAlign=top;html=1;" parent="1" vertex="1">
          <mxGeometry x="120" y="260" width="30" height="60" as="geometry" />
        </mxCell>
      </root>
    </mxGraphModel>
  </diagram>
</mxfile>
